<svg xmlns="http://www.w3.org/2000/svg" viewBox="0 0 432.4 432.4"><g fill="#231f20"><path d="M216.529 93.2c-61.2 0-111.2 50-111.2 111.2 0 32 14 62.8 37.6 83.6 17.6 17.6 16 55.2 15.6 55.6 0 2 .4 3.6 2 5.2 1.2 1.2 3.2 2 4.8 2h102c2 0 3.6-.8 4.8-2 1.2-1.2 2-3.2 2-5.2 0-.4-2-38 15.6-55.6l1.2-1.2c23.2-21.2 36.8-51.2 36.8-82.4 0-61.2-50-111.2-111.2-111.2zm64 184.4c-.4.4-1.2 1.2-1.2 1.6-15.6 16.8-18.4 44.4-18.8 57.6h-88.4c-.4-13.2-3.2-42-20-59.2-21.2-18.4-33.6-45.2-33.6-73.6 0-54 43.6-97.6 97.6-97.6s97.6 43.6 97.6 97.6c0 28.4-12 55.2-33.2 73.6z"/><path d="M216.129 121.6c-3.6 0-6.8 3.2-6.8 6.8 0 3.6 3.2 6.8 6.8 6.8 40.4 0 72.8 32.8 72.8 72.8 0 3.6 3.2 6.8 6.8 6.8 3.6 0 6.8-3.2 6.8-6.8.4-47.6-38.4-86.4-86.4-86.4zM260.529 358.4h-88.8c-9.2 0-16.8 7.6-16.8 16.8s7.6 16.8 16.8 16.8h88.4c9.6-.4 17.2-7.6 17.2-16.8 0-9.2-7.6-16.8-16.8-16.8zm0 19.6h-88.8c-1.6 0-3.2-1.2-3.2-3.2s1.2-3.2 3.2-3.2h88.4c1.6 0 3.2 1.2 3.2 3.2s-1.2 3.2-2.8 3.2zM247.329 398.8h-62.4c-9.2 0-16.8 7.6-16.8 16.8s7.6 16.8 16.8 16.8h62.4c9.2 0 16.8-7.6 16.8-16.8 0-9.6-7.6-16.8-16.8-16.8zm0 19.6h-62.4c-1.6 0-3.2-1.2-3.2-3.2s1.2-3.2 3.2-3.2h62.4c1.6 0 3.2 1.2 3.2 3.2s-1.6 3.2-3.2 3.2zM216.129 60c4 0 6.8-3.2 6.8-6.8V6.8c0-3.6-3.2-6.8-6.8-6.8-3.6 0-6.8 3.2-6.8 6.8v46.4c0 3.6 3.2 6.8 6.8 6.8zM329.329 34.4c-3.2-2.4-7.2-1.2-9.2 1.6l-25.6 38.4c-2.4 3.2-1.6 7.6 1.6 9.6 1.2.8 2.4 1.2 3.6 1.2 2.4 0 4.4-1.2 5.6-3.2l25.6-38.4c2.4-2.8 1.6-7.2-1.6-9.2zM134.929 83.6c1.2 0 2.4-.4 3.6-1.2 3.2-2 4-6.4 2-9.6l-24.8-38.8c-2-3.2-6.4-4-9.6-2s-4 6.4-2 9.6l24.8 38.8c1.6 2.4 3.6 3.2 6 3.2zM86.529 126l-40.4-22c-3.2-1.6-7.6-.4-9.2 2.8-2 3.2-.8 7.6 2.8 9.2l40.4 22c1.2.4 2 .8 3.2.8 2.4 0 4.8-1.2 6-3.6 1.6-3.2.4-7.6-2.8-9.2zM395.729 106.8c-1.6-3.2-6-4.4-9.2-2.8l-40.8 22c-3.2 1.6-4.4 6-2.8 9.2 1.2 2.4 3.6 3.6 6 3.6 1.2 0 2.4-.4 3.2-.8l40.8-22c3.2-1.6 4.4-6 2.8-9.2z"/></g></svg>