<svg height="512pt" viewBox="0 -53 512.004 512" width="512pt" xmlns="http://www.w3.org/2000/svg"><path d="M189.77 141.508h-84.313a7.56 7.56 0 00-7.559 7.558 7.559 7.559 0 007.559 7.555h84.313a7.557 7.557 0 100-15.113zm0 0M189.77 174.414h-84.313a7.559 7.559 0 00-7.559 7.555 7.56 7.56 0 007.559 7.558h84.313a7.557 7.557 0 100-15.113zm0 0M189.742 207.344h-54.601a7.56 7.56 0 000 15.117h54.601c4.172 0 7.559-3.387 7.559-7.559s-3.387-7.558-7.559-7.558zm0 0M415.496 181.969a7.556 7.556 0 00-7.558-7.555h-84.313a7.559 7.559 0 00-7.559 7.555 7.56 7.56 0 007.559 7.558h84.313a7.557 7.557 0 007.558-7.558zm0 0M323.625 207.344a7.56 7.56 0 000 15.117h54.629a7.56 7.56 0 000-15.117zm0 0"/><path d="M496.11 344.887c19.742-54.88 21.077-98.633 4.093-133.54-18.14-37.335-32.84-47.355-41.762-49.355V30.512c0-9.774-8.27-17.73-18.996-18.48-20.789-5.637-41.441-9.313-61.402-10.923a7.558 7.558 0 00-1.215 15.066c19.281 1.555 39.27 5.138 59.418 10.65.582.16 1.18.25 1.781.265 3.121.09 5.297 1.875 5.297 3.422 0 0 .008 205.195-.02 206.683-.144-.093-13.906-9.183-13.906-9.183-7.398-4.883-15.218-5.95-22.027-3.008-7.273 3.144-12.59 10.648-14.219 20.07-2.808 16.13 5.012 27.844 12.328 35.383.012.016.024.031.04.043-42.282-9.16-83.258-6.937-122.192 6.629V25.184a258.78 258.78 0 0157.887-9.559 7.555 7.555 0 007.172-7.926c-.207-4.168-3.762-7.394-7.926-7.168a273.466 273.466 0 00-65.824 11.446h-37.219c-50.348-15.985-104.285-15.965-164.824.05-10.742.743-19.024 8.703-19.024 18.485v131.441c-8.886 2.004-23.562 12.05-41.761 49.5-17.008 34.91-15.657 78.7 4.132 133.652-3.035 2.29-5.007 5.91-5.007 9.993v38.382c0 6.903 5.617 12.524 12.523 12.524h88.77c6.906 0 12.523-5.621 12.523-12.524v-38.21c0-7-5.707-12.696-12.719-12.696h-3.812a159.022 159.022 0 00-.926-9.238h297.402a158.47 158.47 0 00-.902 9.125h-4.012c-6.906 0-12.523 5.621-12.523 12.527v38.66c0 6.75 5.504 12.243 12.27 12.243h89.277c6.765 0 12.27-5.493 12.27-12.243v-38.945c0-4.02-1.958-7.582-4.966-9.816zM25.405 218.063c12.45-25.618 22.676-36.231 28.164-39.848v54.484c-.02 9.617-.03 17.215 6.399 20.676 6.543 3.52 13.96-1.395 17.52-3.75l13.46-8.89c2.11-1.4 5.16-2.837 7.68-1.747 2.508 1.082 4.601 4.528 5.336 8.79 2.129 12.222-5.883 20.765-14.86 28.179-7.703 6.36-10.347 10.352-7.976 18.734.043.274.101.547.18.82.117.419.277.817.457 1.196.449 1.3.992 2.695 1.648 4.219 5.063 11.836 8.531 26.949 9.656 41.648H31.102c-19.23-52.148-21.086-92.914-5.696-124.511zm84.23 139.628v33.196H26.056v-33a7.738 7.738 0 001.543-.184c.004 0 .09-.012.293-.012zm119.048-39.468H104.64c-1.555-6.926-3.536-13.575-5.868-19.625 44.704-11.075 88.332-9.563 129.91 4.511zm39.53 0h-24.413v-12.485l24.414-.11zm0-27.707l-24.413.105V176.13a7.56 7.56 0 00-7.559-7.559 7.563 7.563 0 00-7.562 7.559v111.074c-39.633-12.508-80.922-14.402-123.118-5.656 7.57-7.485 16.231-19.512 13.297-36.352-1.629-9.433-6.953-16.937-14.238-20.082-6.812-2.941-14.629-1.87-22.008 3.012l-13.468 8.895c-.153.101-.297.195-.438.285-.027-1.485-.023-3.106-.023-4.578l.003-60.52c0-.203-.015-.402-.027-.598.012-.168.027-.332.027-.504V30.512c0-1.547 2.176-3.332 5.297-3.422a7.585 7.585 0 001.73-.25c56.302-15.008 106.407-15.582 152.966-1.727v116.559a7.56 7.56 0 0015.117 0V27.094h24.414v263.422zm15.118 27.707v-15.02c41.61-15.734 84.305-17.46 130.117-5.246-2.441 6.211-4.492 13.094-6.097 20.266zm202.625 72.55h-83.582v-33.195h81.746c.184 0 .285.012.277.008.52.121 1.043.176 1.559.184zm-5.043-48.312h-61.969c1.125-14.703 4.59-29.8 9.653-41.613a59.42 59.42 0 001.789-4.645c.148-.308.281-.625.386-.96.715-2.255.989-4.216.954-5.973v-.028a12.975 12.975 0 00-.07-1.125 9.593 9.593 0 00-.188-1.21 9.689 9.689 0 00-.215-.884c-.05-.175-.113-.343-.168-.515-.078-.215-.149-.434-.238-.645-1.493-3.668-4.649-6.293-7.918-9l-.02-.02c-8.98-7.413-16.992-15.956-14.863-28.187.734-4.254 2.824-7.699 5.32-8.781a4.918 4.918 0 011.973-.383c2.023.008 4.137 1.082 5.726 2.133l9.22 6.086 4.226 2.793c3.55 2.355 10.941 7.258 17.472 3.789 6.344-3.371 6.407-11.145 6.453-17.453v-3.117c0-.047.004-.09.004-.137l-.004-54.344c5.508 3.582 15.739 14.14 28.168 39.711 15.383 31.617 13.528 72.383-5.69 124.508zm0 0"/><path d="M182.715 56.059h-71.05c-10.653 0-19.325 8.668-19.325 19.324v20.656c0 10.656 8.668 19.324 19.324 19.324h71.05c10.673 0 19.352-8.668 19.352-19.324V75.383c0-10.656-8.68-19.324-19.351-19.324zm4.234 39.98c0 2.281-1.937 4.211-4.234 4.211h-71.047c-2.281 0-4.207-1.926-4.207-4.21V75.382c0-2.281 1.926-4.211 4.207-4.211h71.047c2.297 0 4.234 1.926 4.234 4.21zm0 0M421.055 75.383c0-10.656-8.668-19.324-19.325-19.324h-71.05c-10.672 0-19.352 8.671-19.352 19.324v20.656c0 10.656 8.68 19.328 19.352 19.328h71.05c10.657 0 19.325-8.672 19.325-19.328zm-15.118 20.656c0 2.281-1.925 4.211-4.207 4.211h-71.05c-2.293 0-4.235-1.926-4.235-4.21V75.382c0-2.281 1.942-4.211 4.235-4.211h71.05c2.282 0 4.208 1.926 4.208 4.21zm0 0M407.938 141.508h-84.31a7.557 7.557 0 100 15.113h84.31a7.557 7.557 0 100-15.113zm0 0"/></svg>