<svg height="512pt" viewBox="0 -53 512.00365 512" width="512pt" xmlns="http://www.w3.org/2000/svg"><path d="m189.769531 141.507812h-84.3125c-4.171875 0-7.558593 3.382813-7.558593 7.558594 0 4.171875 3.386718 7.554688 7.558593 7.554688h84.3125c4.175781 0 7.558594-3.382813 7.558594-7.554688 0-4.175781-3.382813-7.558594-7.558594-7.558594zm0 0"/><path d="m189.769531 174.414062h-84.3125c-4.171875 0-7.558593 3.382813-7.558593 7.554688 0 4.175781 3.386718 7.558594 7.558593 7.558594h84.3125c4.175781 0 7.558594-3.382813 7.558594-7.558594 0-4.171875-3.382813-7.554688-7.558594-7.554688zm0 0"/><path d="m189.742188 207.34375h-54.601563c-4.175781 0-7.558594 3.386719-7.558594 7.558594 0 4.175781 3.382813 7.558594 7.558594 7.558594h54.601563c4.171874 0 7.558593-3.386719 7.558593-7.558594s-3.386719-7.558594-7.558593-7.558594zm0 0"/><path d="m415.496094 181.96875c0-4.171875-3.382813-7.554688-7.558594-7.554688h-84.3125c-4.171875 0-7.558594 3.382813-7.558594 7.554688 0 4.175781 3.386719 7.558594 7.558594 7.558594h84.3125c4.175781 0 7.558594-3.382813 7.558594-7.558594zm0 0"/><path d="m323.625 207.34375c-4.171875 0-7.558594 3.386719-7.558594 7.558594 0 4.175781 3.386719 7.558594 7.558594 7.558594h54.628906c4.175782 0 7.558594-3.386719 7.558594-7.558594s-3.382812-7.558594-7.558594-7.558594zm0 0"/><path d="m496.109375 344.886719c19.742187-54.878907 21.078125-98.632813 4.09375-133.539063-18.140625-37.335937-32.839844-47.355468-41.761719-49.355468v-131.480469c0-9.773438-8.269531-17.730469-18.996094-18.480469-20.789062-5.636719-41.441406-9.3125-61.402343-10.921875-4.160157-.328125-7.804688 2.765625-8.140625 6.925781-.335938 4.160156 2.765625 7.804688 6.925781 8.140625 19.28125 1.554688 39.269531 5.136719 59.417969 10.648438.582031.160156 1.179687.25 1.78125.265625 3.121094.089844 5.296875 1.875 5.296875 3.421875 0 0 .007812 205.195312-.019531 206.683593-.144532-.09375-13.90625-9.183593-13.90625-9.183593-7.398438-4.882813-15.21875-5.949219-22.027344-3.007813-7.273438 3.144532-12.589844 10.648438-14.21875 20.070313-2.808594 16.128906 5.011718 27.84375 12.328125 35.382812.011719.015625.023437.03125.039062.042969-42.28125-9.160156-83.257812-6.9375-122.191406 6.628906v-261.945312c18.804687-5.355469 38.25-8.574219 57.886719-9.558594 4.171875-.207031 7.382812-3.757812 7.171875-7.925781-.207031-4.167969-3.761719-7.394531-7.925781-7.167969-22.371094 1.117188-44.511719 4.96875-65.824219 11.445312h-37.21875c-50.347657-15.984374-104.285157-15.964843-164.824219.050782-10.742188.742187-19.023438 8.703125-19.023438 18.484375v131.441406c-8.886718 2.003906-23.5625 12.050781-41.761718 49.5-17.007813 34.910156-15.65625 78.699219 4.132812 133.652344-3.035156 2.289062-5.007812 5.910156-5.007812 9.992187v38.382813c0 6.902343 5.617187 12.523437 12.523437 12.523437h88.769531c6.90625 0 12.523438-5.621094 12.523438-12.523437v-38.210938c0-7-5.707031-12.695312-12.71875-12.695312h-3.8125c-.214844-3.066407-.527344-6.152344-.925781-9.238281h297.402343c-.390624 3.046874-.691406 6.097656-.902343 9.125h-4.011719c-6.90625 0-12.523438 5.621093-12.523438 12.527343v38.660157c0 6.75 5.503907 12.242187 12.269532 12.242187h89.277344c6.765624 0 12.269531-5.492187 12.269531-12.242187v-38.945313c0-4.019531-1.957031-7.582031-4.964844-9.816406zm-470.703125-126.824219c12.449219-25.617188 22.675781-36.230469 28.164062-39.847656v54.484375c-.019531 9.617187-.03125 17.214843 6.398438 20.675781 6.542969 3.519531 13.960938-1.394531 17.519531-3.75l13.460938-8.890625c2.109375-1.398437 5.160156-2.835937 7.679687-1.746094 2.507813 1.082031 4.601563 4.527344 5.335938 8.789063 2.128906 12.222656-5.882813 20.765625-14.859375 28.179687-7.703125 6.359375-10.347657 10.351563-7.976563 18.734375.042969.273438.101563.546875.179688.820313.117187.417969.277344.816406.457031 1.195312.449219 1.300781.992187 2.695313 1.648437 4.21875 5.0625 11.835938 8.53125 26.949219 9.65625 41.648438h-61.96875c-19.230468-52.148438-21.085937-92.914063-5.695312-124.511719zm84.230469 139.628906v33.195313h-83.582031v-33c.511718-.011719 1.027343-.066407 1.542968-.183594.003906 0 .089844-.011719.292969-.011719zm119.046875-39.46875h-124.042969c-1.554687-6.925781-3.535156-13.574218-5.867187-19.625 44.703124-11.074218 88.332031-9.5625 129.910156 4.511719zm39.53125 0h-24.414063v-12.484375l24.414063-.109375zm0-27.707031-24.414063.105469v-114.492188c0-4.175781-3.386719-7.558594-7.558593-7.558594-4.175782 0-7.5625 3.386719-7.5625 7.558594v111.074219c-39.632813-12.507813-80.921876-14.402344-123.117188-5.65625 7.570312-7.484375 16.230469-19.511719 13.296875-36.351563-1.628906-9.433593-6.953125-16.9375-14.238281-20.082031-6.8125-2.941406-14.628906-1.871093-22.007813 3.011719l-13.46875 8.894531c-.152343.101563-.296875.195313-.4375.285157-.027343-1.484376-.023437-3.105469-.023437-4.578126l.003906-60.519531c0-.203125-.015625-.402343-.027344-.597656.011719-.167969.027344-.332031.027344-.503906v-140.59375c0-1.546875 2.175781-3.332031 5.296875-3.421875.585937-.015625 1.167969-.101563 1.730469-.25 56.300781-15.007813 106.40625-15.582032 152.964844-1.726563v116.558594c0 4.175781 3.382812 7.558594 7.558593 7.558594s7.558594-3.386719 7.558594-7.558594v-114.578125h24.414063v263.421875zm15.117187 27.707031v-15.019531c41.609375-15.734375 84.304688-17.460937 130.117188-5.246094-2.441407 6.210938-4.492188 13.09375-6.097657 20.265625zm202.625 72.550782h-83.582031v-33.195313h81.746094c.183594 0 .285156.011719.277344.007813.519531.121093 1.042968.175781 1.558593.183593zm-5.042969-48.3125h-61.96875c1.125-14.703126 4.589844-29.800782 9.652344-41.613282.726563-1.691406 1.316406-3.226562 1.789063-4.644531.148437-.308594.28125-.625.386719-.960937.714843-2.253907.988281-4.214844.953124-5.972657 0-.011719 0-.019531 0-.027343-.007812-.386719-.03125-.761719-.070312-1.125-.023438-.238282-.054688-.476563-.089844-.707032-.027344-.171875-.0625-.339844-.097656-.503906-.058594-.296875-.128906-.59375-.214844-.882812-.050781-.175782-.113281-.34375-.167968-.515626-.078126-.214843-.148438-.433593-.238282-.644531-1.492187-3.667969-4.648437-6.292969-7.917968-9-.007813-.007812-.011719-.011719-.019532-.019531-8.980468-7.414062-16.992187-15.957031-14.863281-28.1875.734375-4.253906 2.824219-7.699219 5.320313-8.78125.632812-.269531 1.296874-.386719 1.972656-.382812 2.023437.007812 4.136718 1.082031 5.726562 2.132812l9.21875 6.085938 4.226563 2.792968c3.550781 2.355469 10.941406 7.257813 17.472656 3.789063 6.34375-3.371094 6.40625-11.144531 6.453125-17.453125v-3.117188c0-.046875.003906-.089844.003906-.136718l-.003906-54.34375c5.507812 3.582031 15.738281 14.140624 28.167969 39.710937 15.382812 31.617187 13.527343 72.382813-5.691407 124.507813zm0 0"/><path d="m182.714844 56.058594h-71.050782c-10.652343 0-19.324218 8.667968-19.324218 19.324218v20.65625c0 10.65625 8.667968 19.324219 19.324218 19.324219h71.050782c10.671875 0 19.351562-8.667969 19.351562-19.324219v-20.65625c0-10.65625-8.679687-19.324218-19.351562-19.324218zm4.234375 39.980468c0 2.28125-1.9375 4.210938-4.234375 4.210938h-71.046875c-2.28125 0-4.207031-1.925781-4.207031-4.210938v-20.65625c0-2.28125 1.925781-4.210937 4.207031-4.210937h71.046875c2.296875 0 4.234375 1.925781 4.234375 4.210937zm0 0"/><path d="m421.054688 75.382812c0-10.65625-8.667969-19.324218-19.324219-19.324218h-71.050781c-10.671876 0-19.351563 8.671875-19.351563 19.324218v20.65625c0 10.65625 8.679687 19.328126 19.351563 19.328126h71.050781c10.65625 0 19.324219-8.671876 19.324219-19.328126zm-15.117188 20.65625c0 2.28125-1.925781 4.210938-4.207031 4.210938h-71.050781c-2.292969 0-4.234376-1.925781-4.234376-4.210938v-20.65625c0-2.28125 1.941407-4.210937 4.234376-4.210937h71.050781c2.28125 0 4.207031 1.925781 4.207031 4.210937zm0 0"/><path d="m407.9375 141.507812h-84.308594c-4.175781 0-7.558594 3.382813-7.558594 7.558594 0 4.171875 3.382813 7.554688 7.558594 7.554688h84.308594c4.175781 0 7.558594-3.382813 7.558594-7.554688 0-4.175781-3.382813-7.558594-7.558594-7.558594zm0 0"/></svg>