<svg height="512pt" viewBox="0 0 512 512" width="512pt" xmlns="http://www.w3.org/2000/svg"><linearGradient id="a" gradientTransform="matrix(1 0 0 -1 0 -12310)" gradientUnits="userSpaceOnUse" x1="0" x2="512" y1="-12566" y2="-12566"><stop offset="0" stop-color="#00f1ff"/><stop offset=".231" stop-color="#00d8ff"/><stop offset=".514" stop-color="#00c0ff"/><stop offset=".777" stop-color="#00b2ff"/><stop offset="1" stop-color="#00adff"/></linearGradient><path d="M512 256c0 141.387-114.613 256-256 256S0 397.387 0 256 114.613 0 256 0s256 114.613 256 256zm0 0" fill="url(#a)"/><g fill="#fff"><path d="M284.883 212.52c-7.715-7.715-17.973-11.961-28.883-11.961s-21.168 4.246-28.887 11.968l-48.281 48.325c-5.855 5.859-5.852 15.359.008 21.21a14.958 14.958 0 0010.601 4.391c3.844 0 7.684-1.465 10.614-4.398l48.273-48.32c2.05-2.048 4.774-3.176 7.672-3.176s5.621 1.129 7.734 3.242l48.926 48.324c5.899 5.824 15.395 5.766 21.215-.129 5.82-5.894 5.762-15.39-.133-21.215zm0 0"/><path d="M256 265.5c-8.285 0-15 6.715-15 15V454c0 8.285 6.715 15 15 15s15-6.715 15-15V280.5c0-8.285-6.715-15-15-15zm0 0M408.5 134h-305c-8.285 0-15 6.715-15 15s6.715 15 15 15h305c8.285 0 15-6.715 15-15s-6.715-15-15-15zm0 0"/></g></svg>