<svg height="512pt" viewBox="0 0 512 512" width="512pt" xmlns="http://www.w3.org/2000/svg" xmlns:xlink="http://www.w3.org/1999/xlink"><linearGradient id="a" gradientTransform="matrix(1 0 0 -1 0 -12310)" gradientUnits="userSpaceOnUse" x1="0" x2="512" y1="-12566" y2="-12566"><stop offset="0" stop-color="#00f1ff"/><stop offset=".231" stop-color="#00d8ff"/><stop offset=".5138" stop-color="#00c0ff"/><stop offset=".7773" stop-color="#00b2ff"/><stop offset="1" stop-color="#00adff"/></linearGradient><path d="m512 256c0 141.386719-114.613281 256-256 256s-256-114.613281-256-256 114.613281-256 256-256 256 114.613281 256 256zm0 0" fill="url(#a)"/><g fill="#fff"><path d="m284.882812 212.519531c-7.714843-7.714843-17.972656-11.960937-28.882812-11.960937s-21.167969 4.246094-28.886719 11.96875l-48.28125 48.324218c-5.855469 5.859376-5.851562 15.359376.007813 21.210938 2.929687 2.925781 6.765625 4.390625 10.601562 4.390625 3.84375 0 7.683594-1.464844 10.613282-4.398437l48.273437-48.320313c2.050781-2.046875 4.773437-3.175781 7.671875-3.175781s5.621094 1.128906 7.734375 3.242187l48.925781 48.324219c5.898438 5.824219 15.394532 5.765625 21.214844-.128906 5.820312-5.894532 5.761719-15.390625-.132812-21.214844zm0 0"/><path d="m256 265.5c-8.285156 0-15 6.714844-15 15v173.5c0 8.285156 6.714844 15 15 15s15-6.714844 15-15v-173.5c0-8.285156-6.714844-15-15-15zm0 0"/><path d="m408.5 134h-305c-8.285156 0-15 6.714844-15 15s6.714844 15 15 15h305c8.285156 0 15-6.714844 15-15s-6.714844-15-15-15zm0 0"/></g></svg>